<svg width="238" height="199" viewBox="0 0 238 199" fill="none" xmlns="http://www.w3.org/2000/svg">
<path d="M8 176H230V189C230 194.523 225.523 199 220 199H18C12.4771 199 8 194.523 8 189V176Z" fill="#2B2531"/>
<rect x="14" y="23" width="210" height="153" fill="#E9702C"/>
<rect x="53" y="50" width="133" height="126" fill="#C4C4C4"/>
<rect x="64" y="60" width="43" height="106" fill="#01B1B8"/>
<rect x="132" y="60" width="43" height="106" fill="#01B1B8"/>
<line x1="119.5" y1="50" x2="119.5" y2="176" stroke="#8C8C8C"/>
<path d="M238 20C238 29.3888 230.389 37 221 37C211.611 37 204 29.3888 204 20C204 10.6112 211.611 3 221 3C230.389 3 238 10.6112 238 20Z" fill="#FF9000"/>
<path d="M170 20C170 29.3888 162.389 37 153 37C143.611 37 136 29.3888 136 20C136 10.6112 143.611 3 153 3C162.389 3 170 10.6112 170 20Z" fill="#FF9000"/>
<path d="M102 20C102 29.3888 94.3888 37 85 37C75.6112 37 68 29.3888 68 20C68 10.6112 75.6112 3 85 3C94.3888 3 102 10.6112 102 20Z" fill="#FF9000"/>
<path d="M34 20C34 29.3888 26.3888 37 17 37C7.61116 37 0 29.3888 0 20C0 10.6112 7.61116 3 17 3C26.3888 3 34 10.6112 34 20Z" fill="#FF9000"/>
<path d="M205 19.5C205 28.6127 197.613 36 188.5 36C179.387 36 172 28.6127 172 19.5C172 10.3873 179.387 3 188.5 3C197.613 3 205 10.3873 205 19.5Z" fill="#FFBC66"/>
<path d="M204 20C204 29.3888 196.389 37 187 37C177.611 37 170 29.3888 170 20C170 10.6112 177.611 3 187 3C196.389 3 204 10.6112 204 20Z" fill="#FFBC66"/>
<path d="M136 20C136 29.3888 128.389 37 119 37C109.611 37 102 29.3888 102 20C102 10.6112 109.611 3 119 3C128.389 3 136 10.6112 136 20Z" fill="#FFBC66"/>
<path d="M68 20C68 29.3888 60.3888 37 51 37C41.6112 37 34 29.3888 34 20C34 10.6112 41.6112 3 51 3C60.3888 3 68 10.6112 68 20Z" fill="#FFBC66"/>
<rect x="204" width="34" height="20" fill="#FF9000"/>
<rect x="68" width="34" height="20" fill="#FF9000"/>
<rect width="34" height="20" fill="#FF9000"/>
<rect x="136" width="34" height="20" fill="#FF9000"/>
<rect x="34" width="34" height="20" fill="#FFBC66"/>
<rect x="102" width="34" height="20" fill="#FFBC66"/>
<rect x="170" width="34" height="20" fill="#FFBC66"/>
</svg>
