<svg width="238" height="258" viewBox="0 0 238 258" fill="none" xmlns="http://www.w3.org/2000/svg">
<path d="M8 235H230V248C230 253.523 225.523 258 220 258H18C12.4771 258 8 253.523 8 248V235Z" fill="#2B2531"/>
<path d="M14.5 70.5H223.5V234.5H14.5V70.5Z" fill="#F5F5DC" stroke="#9A9A9A"/>
<path d="M184 110H51V235H184V110Z" fill="#C4C4C4"/>
<path d="M107 119H64V225H107V119Z" fill="#01B1B8"/>
<path d="M175 119H132V225H175V119Z" fill="#01B1B8"/>
<path d="M119.5 109V235" stroke="#8C8C8C"/>
<path d="M238 79C238 88.3888 230.389 96 221 96C211.611 96 204 88.3888 204 79C204 69.6112 211.611 62 221 62C230.389 62 238 69.6112 238 79Z" fill="#FF9000"/>
<path d="M170 79C170 88.3888 162.389 96 153 96C143.611 96 136 88.3888 136 79C136 69.6112 143.611 62 153 62C162.389 62 170 69.6112 170 79Z" fill="#FF9000"/>
<path d="M102 79C102 88.3888 94.3888 96 85 96C75.6112 96 68 88.3888 68 79C68 69.6112 75.6112 62 85 62C94.3888 62 102 69.6112 102 79Z" fill="#FF9000"/>
<path d="M34 79C34 88.3888 26.3888 96 17 96C7.61116 96 0 88.3888 0 79C0 69.6112 7.61116 62 17 62C26.3888 62 34 69.6112 34 79Z" fill="#FF9000"/>
<path d="M205 78.5C205 87.6127 197.613 95 188.5 95C179.387 95 172 87.6127 172 78.5C172 69.3873 179.387 62 188.5 62C197.613 62 205 69.3873 205 78.5Z" fill="#FFBC66"/>
<path d="M204 79C204 88.3888 196.389 96 187 96C177.611 96 170 88.3888 170 79C170 69.6112 177.611 62 187 62C196.389 62 204 69.6112 204 79Z" fill="#FFBC66"/>
<path d="M136 79C136 88.3888 128.389 96 119 96C109.611 96 102 88.3888 102 79C102 69.6112 109.611 62 119 62C128.389 62 136 69.6112 136 79Z" fill="#FFBC66"/>
<path d="M68 79C68 88.3888 60.3888 96 51 96C41.6112 96 34 88.3888 34 79C34 69.6112 41.6112 62 51 62C60.3888 62 68 69.6112 68 79Z" fill="#FFBC66"/>
<path d="M238 59H204V79H238V59Z" fill="#FF9000"/>
<path d="M102 59H68V79H102V59Z" fill="#FF9000"/>
<path d="M34 59H0V79H34V59Z" fill="#FF9000"/>
<path d="M170 59H136V79H170V59Z" fill="#FF9000"/>
<path d="M68 59H34V79H68V59Z" fill="#FFBC66"/>
<path d="M136 59H102V79H136V59Z" fill="#FFBC66"/>
<path d="M204 59H170V79H204V59Z" fill="#FFBC66"/>
<path d="M51 17H71L34 59H0L51 17Z" fill="#FF9000"/>
<path d="M71 17H90L68 59H34L71 17Z" fill="#FFBC66"/>
<path d="M90 17H109L102 59H68L90 17Z" fill="#FF9000"/>
<path d="M109 17H132L136 59H102L109 17Z" fill="#FFBC66"/>
<path d="M132 17H151L170 59H136L132 17Z" fill="#FF9000"/>
<path d="M151 17H170L204 59H170L151 17Z" fill="#FFBC66"/>
<path d="M170 17H189L238 59H204L170 17Z" fill="#FF9000"/>
<rect x="135" y="159" width="37" height="13" rx="2" fill="#FF0000"/>
<line x1="153.951" y1="140.405" x2="166.643" y2="161.362" stroke="black"/>
<line x1="152.429" y1="141.257" x2="140.595" y2="160.98" stroke="black"/>
<circle cx="153.5" cy="140.5" r="2.5" fill="#C4C4C4"/>
<circle cx="140.5" cy="161.5" r="1.5" fill="#C4C4C4"/>
<circle cx="166.5" cy="161.5" r="1.5" fill="#C4C4C4"/>
<path d="M146.286 163.951C146.382 163.918 146.488 163.901 146.605 163.901C146.725 163.901 146.844 163.91 146.963 163.928C147.084 163.945 147.211 163.974 147.344 164.013C147.477 164.052 147.609 164.102 147.742 164.162C147.875 164.223 147.994 164.295 148.1 164.379C148.336 164.566 148.454 164.789 148.454 165.047C148.454 165.352 148.293 165.686 147.971 166.049C147.51 166.568 146.85 167.031 145.99 167.438C145.449 167.691 144.906 167.871 144.361 167.977C144.092 168.027 143.829 168.053 143.573 168.053C143.319 168.053 143.1 168.019 142.914 167.95C142.73 167.88 142.58 167.793 142.463 167.689C142.348 167.586 142.264 167.475 142.211 167.355C142.158 167.236 142.132 167.11 142.132 166.978C142.132 166.845 142.171 166.689 142.249 166.512C142.329 166.334 142.432 166.158 142.557 165.984C142.684 165.809 142.825 165.639 142.981 165.475C143.14 165.309 143.297 165.155 143.453 165.015C143.723 164.774 143.981 164.568 144.229 164.396C144.479 164.223 144.69 164.086 144.862 163.986C145.034 163.887 145.178 163.811 145.293 163.758C145.488 163.666 145.607 163.62 145.65 163.62C145.693 163.62 145.741 163.633 145.794 163.658C145.849 163.684 145.908 163.714 145.973 163.749C146.133 163.839 146.237 163.906 146.286 163.951ZM143.559 167.191C143.594 167.193 143.659 167.194 143.755 167.194C143.851 167.194 143.989 167.17 144.171 167.121C144.353 167.072 144.538 167.007 144.728 166.925C144.917 166.841 145.106 166.744 145.296 166.635C145.487 166.523 145.67 166.407 145.844 166.286C146.018 166.165 146.18 166.042 146.33 165.917C146.482 165.79 146.614 165.668 146.726 165.551C146.964 165.303 147.083 165.114 147.083 164.985C147.083 164.853 147.003 164.754 146.843 164.689C146.735 164.645 146.62 164.622 146.497 164.622C146.292 164.622 146.123 164.64 145.99 164.675C145.42 164.942 144.864 165.292 144.323 165.724C143.937 166.032 143.66 166.324 143.494 166.6C143.408 166.742 143.365 166.875 143.365 166.998C143.365 167.119 143.43 167.184 143.559 167.191ZM149.049 167.818C149.016 167.762 149.003 167.707 149.011 167.654C149.021 167.6 149.047 167.529 149.09 167.443C149.133 167.355 149.191 167.246 149.266 167.115L149.523 166.676L149.84 166.154L150.197 165.592L150.572 165.029C150.102 165.146 149.742 165.286 149.494 165.448C149.453 165.476 149.418 165.504 149.389 165.533L149.289 165.633C149.229 165.693 149.169 165.724 149.11 165.724C149.052 165.724 149.006 165.717 148.973 165.703C148.941 165.688 148.916 165.668 148.896 165.645C148.848 165.588 148.839 165.525 148.87 165.457C148.954 165.188 149.074 164.912 149.23 164.631C149.316 164.475 149.385 164.385 149.436 164.361C149.807 164.201 150.58 164.085 151.756 164.013C152.139 163.989 152.541 163.978 152.963 163.978C153.238 163.978 153.5 164.076 153.748 164.273C154.025 164.498 154.164 164.779 154.164 165.117C154.164 165.559 153.785 165.977 153.027 166.371C152.607 166.592 152.213 166.746 151.844 166.834C151.748 166.855 151.674 166.866 151.621 166.866C151.57 166.866 151.512 166.859 151.445 166.846C151.381 166.832 151.322 166.812 151.27 166.787C151.145 166.725 151.082 166.649 151.082 166.562C151.082 166.437 151.202 166.31 151.442 166.181L152.072 165.841C152.445 165.642 152.676 165.497 152.764 165.407C152.852 165.317 152.896 165.244 152.896 165.188C152.896 165.129 152.884 165.075 152.86 165.026C152.839 164.978 152.809 164.934 152.77 164.895C152.686 164.811 152.596 164.769 152.5 164.769C152.301 164.769 152.061 164.784 151.779 164.815L151.422 165.445C150.965 166.275 150.654 167.021 150.49 167.684C150.424 167.941 150.173 168.07 149.737 168.07C149.378 168.07 149.148 167.986 149.049 167.818ZM154.615 167.921C154.465 167.854 154.347 167.771 154.261 167.672C154.177 167.572 154.121 167.479 154.094 167.391C154.051 167.26 154.029 167.147 154.029 167.054C154.029 166.96 154.06 166.853 154.12 166.731C154.183 166.61 154.285 166.49 154.428 166.371C154.74 166.111 155.22 165.889 155.866 165.703C155.659 165.615 155.541 165.476 155.512 165.284C155.482 165.065 155.576 164.871 155.793 164.701C156.193 164.387 156.963 164.174 158.102 164.062C158.453 164.029 158.708 164.013 158.866 164.013C159.026 164.013 159.14 164.038 159.206 164.089C159.274 164.14 159.314 164.216 159.326 164.317C159.34 164.417 159.321 164.501 159.271 164.569C159.22 164.638 159.147 164.692 159.054 164.733C158.88 164.81 158.643 164.848 158.342 164.848C158.121 164.848 157.92 164.814 157.738 164.748C157.689 164.729 157.651 164.708 157.624 164.687C157.233 164.808 157.012 164.943 156.959 165.094C156.943 165.133 156.938 165.169 156.941 165.202C156.959 165.321 157.037 165.409 157.176 165.466C157.314 165.522 157.525 165.559 157.809 165.574C157.902 165.582 157.972 165.607 158.017 165.65C158.063 165.693 158.09 165.738 158.096 165.785C158.104 165.832 158.101 165.869 158.087 165.896C158.073 165.922 158.053 165.943 158.025 165.961C157.979 165.992 157.886 166.019 157.747 166.04C157.608 166.062 157.447 166.092 157.264 166.131C157.08 166.168 156.905 166.208 156.739 166.251C156.573 166.294 156.419 166.338 156.276 166.383C156.136 166.428 156.014 166.471 155.91 166.512C155.691 166.604 155.586 166.678 155.594 166.734C155.602 166.789 155.624 166.837 155.661 166.878C155.698 166.919 155.748 166.955 155.811 166.986C155.928 167.041 156.07 167.076 156.238 167.092C156.408 167.105 156.572 167.112 156.73 167.112C156.891 167.112 157.062 167.1 157.243 167.074C157.427 167.047 157.598 167.013 157.756 166.972C157.916 166.931 158.062 166.888 158.195 166.843C158.33 166.796 158.447 166.752 158.547 166.711L158.787 166.611C158.85 166.584 158.906 166.57 158.957 166.57C159.092 166.57 159.168 166.642 159.186 166.784C159.209 166.978 158.992 167.195 158.535 167.438C157.924 167.764 157.248 167.977 156.508 168.076C156.336 168.1 156.129 168.111 155.887 168.111C155.646 168.111 155.412 168.096 155.184 168.064C154.955 168.033 154.766 167.985 154.615 167.921ZM160.062 167.877C159.94 168.031 159.841 168.116 159.763 168.132C159.687 168.149 159.623 168.151 159.572 168.138C159.521 168.124 159.477 168.102 159.438 168.07C159.355 168 159.314 167.906 159.314 167.789C159.314 167.703 159.341 167.617 159.394 167.531C160.532 165.721 161.151 164.74 161.251 164.59C161.485 164.242 161.621 164.047 161.658 164.004L161.731 163.916C161.95 163.664 162.234 163.538 162.584 163.538C162.855 163.538 163.041 163.598 163.141 163.717C163.164 163.742 163.176 163.791 163.176 163.863C163.178 163.936 163.182 164.051 163.188 164.209L163.202 164.713C163.208 164.891 163.215 165.072 163.223 165.258L163.24 165.803C163.256 166.154 163.27 166.457 163.281 166.711C163.357 166.576 163.435 166.419 163.513 166.239L163.762 165.671C163.988 165.163 164.207 164.762 164.418 164.467C164.551 164.277 164.77 164.183 165.074 164.183C165.299 164.183 165.5 164.231 165.678 164.329C165.785 164.388 165.838 164.439 165.836 164.484C165.836 164.525 165.821 164.564 165.792 164.602L165.73 164.687C165.592 164.88 165.455 165.081 165.32 165.29L164.928 165.914C164.377 166.824 164.058 167.347 163.97 167.481C163.882 167.616 163.814 167.711 163.768 167.766C163.723 167.818 163.663 167.863 163.589 167.9C163.517 167.938 163.434 167.971 163.34 168C163.137 168.064 162.968 168.097 162.833 168.097C162.606 168.097 162.453 168.064 162.373 168C162.287 167.922 162.166 167.469 162.01 166.641L161.91 166.09C161.879 165.902 161.851 165.716 161.825 165.53C161.761 165.63 161.678 165.748 161.576 165.885L160.715 167.033L160.062 167.877Z" fill="white"/>
<path d="M51 10C51 4.47715 55.4772 0 61 0H179C184.523 0 189 4.47715 189 10V17H51V10Z" fill="#FF9000"/>
</svg>
