<svg width="238" height="241" viewBox="0 0 238 241" fill="none" xmlns="http://www.w3.org/2000/svg">
            <path d="M8 218H230V231C230 236.523 225.523 241 220 241H18C12.4771 241 8 236.523 8 231V218Z" fill="#2B2531"/>
            <rect x="14" y="65" width="210" height="153" fill="#E9702C"/>
            <rect x="53" y="92" width="133" height="126" fill="#C4C4C4"/>
            <rect x="64" y="102" width="43" height="106" fill="#01B1B8"/>
            <rect x="132" y="102" width="43" height="106" fill="#01B1B8"/>
            <line x1="119.5" y1="92" x2="119.5" y2="218" stroke="#8C8C8C"/>
            <path d="M238 62C238 71.3888 230.389 79 221 79C211.611 79 204 71.3888 204 62C204 52.6112 211.611 45 221 45C230.389 45 238 52.6112 238 62Z" fill="#FF9000"/>
            <path d="M170 62C170 71.3888 162.389 79 153 79C143.611 79 136 71.3888 136 62C136 52.6112 143.611 45 153 45C162.389 45 170 52.6112 170 62Z" fill="#FF9000"/>
            <path d="M102 62C102 71.3888 94.3888 79 85 79C75.6112 79 68 71.3888 68 62C68 52.6112 75.6112 45 85 45C94.3888 45 102 52.6112 102 62Z" fill="#FF9000"/>
            <path d="M34 62C34 71.3888 26.3888 79 17 79C7.61116 79 0 71.3888 0 62C0 52.6112 7.61116 45 17 45C26.3888 45 34 52.6112 34 62Z" fill="#FF9000"/>
            <path d="M205 61.5C205 70.6127 197.613 78 188.5 78C179.387 78 172 70.6127 172 61.5C172 52.3873 179.387 45 188.5 45C197.613 45 205 52.3873 205 61.5Z" fill="#FFBC66"/>
            <path d="M204 62C204 71.3888 196.389 79 187 79C177.611 79 170 71.3888 170 62C170 52.6112 177.611 45 187 45C196.389 45 204 52.6112 204 62Z" fill="#FFBC66"/>
            <path d="M136 62C136 71.3888 128.389 79 119 79C109.611 79 102 71.3888 102 62C102 52.6112 109.611 45 119 45C128.389 45 136 52.6112 136 62Z" fill="#FFBC66"/>
            <path d="M68 62C68 71.3888 60.3888 79 51 79C41.6112 79 34 71.3888 34 62C34 52.6112 41.6112 45 51 45C60.3888 45 68 52.6112 68 62Z" fill="#FFBC66"/>
            <rect x="204" y="42" width="34" height="20" fill="#FF9000"/>
            <rect x="68" y="42" width="34" height="20" fill="#FF9000"/>
            <rect y="42" width="34" height="20" fill="#FF9000"/>
            <rect x="136" y="42" width="34" height="20" fill="#FF9000"/>
            <rect x="34" y="42" width="34" height="20" fill="#FFBC66"/>
            <rect x="102" y="42" width="34" height="20" fill="#FFBC66"/>
            <rect x="170" y="42" width="34" height="20" fill="#FFBC66"/>
            <polygon points="51,0 71,0 34,42 0,42" fill="#ff9000"></polygon>
            <polygon points="71,0 90,0 68,42 34,42" fill="#ffbc66"></polygon>
            <polygon points="90,0 109,0 102,42 68,42" fill="#ff9000"></polygon>
            <polygon points="109,0 132,0 136,42 102,42" fill="#ffbc66"></polygon>
            <polygon points="132,0 151,0 170,42 136,42" fill="#ff9000"></polygon>
            <polygon points="151,0 170,0 204,42 170,42" fill="#ffbc66"></polygon>
            <polygon points="170,0 189,0 238,42 204,42" fill="#ff9000"></polygon>
        </svg>
