<svg width="159" height="150" viewBox="0 0 159 150" fill="none" xmlns="http://www.w3.org/2000/svg">
                <g clip-path="url(#clip0_178_62)">
                <path d="M5.31604 136.628H152.836V144.186C152.836 147.397 149.861 150 146.191 150H11.9611C8.2911 150 5.31604 147.397 5.31604 144.186V136.628Z" fill="#2B2531"/>
                <path d="M8.65216 41.2609H147.198V136.191H8.65216V41.2609Z" fill="#FFE99E" stroke="#9A9A9A"/>
                <path d="M122.269 63.9535H33.8897V136.628H122.269V63.9535Z" fill="#C4C4C4"/>
                <path d="M71.102 69.1861H42.5283V130.814H71.102V69.1861Z" fill="#0F9980"/>
                <path d="M116.288 69.1861H87.7147V130.814H116.288V69.1861Z" fill="#0F9980"/>
                <path d="M79.4083 63.3721V136.628" stroke="#8C8C8C"/>
                <path d="M158.152 45.9302C158.152 51.3889 153.095 55.814 146.856 55.814C140.617 55.814 135.559 51.3889 135.559 45.9302C135.559 40.4716 140.617 36.0465 146.856 36.0465C153.095 36.0465 158.152 40.4716 158.152 45.9302Z" fill="#FF9000"/>
                <path d="M112.966 45.9302C112.966 51.3889 107.908 55.814 101.669 55.814C95.4302 55.814 90.3727 51.3889 90.3727 45.9302C90.3727 40.4716 95.4302 36.0465 101.669 36.0465C107.908 36.0465 112.966 40.4716 112.966 45.9302Z" fill="#FF9000"/>
                <path d="M67.7795 45.9302C67.7795 51.3889 62.7218 55.814 56.4829 55.814C50.244 55.814 45.1863 51.3889 45.1863 45.9302C45.1863 40.4716 50.244 36.0465 56.4829 36.0465C62.7218 36.0465 67.7795 40.4716 67.7795 45.9302Z" fill="#FF9000"/>
                <path d="M22.5932 45.9302C22.5932 51.3889 17.5355 55.814 11.2966 55.814C5.05765 55.814 0 51.3889 0 45.9302C0 40.4716 5.05765 36.0465 11.2966 36.0465C17.5355 36.0465 22.5932 40.4716 22.5932 45.9302Z" fill="#FF9000"/>
                <path d="M136.223 45.6395C136.223 50.9376 131.315 55.2326 125.259 55.2326C119.204 55.2326 114.295 50.9376 114.295 45.6395C114.295 40.3415 119.204 36.0465 125.259 36.0465C131.315 36.0465 136.223 40.3415 136.223 45.6395Z" fill="#FFBC66"/>
                <path d="M135.559 45.9302C135.559 51.3889 130.501 55.814 124.262 55.814C118.023 55.814 112.966 51.3889 112.966 45.9302C112.966 40.4716 118.023 36.0465 124.262 36.0465C130.501 36.0465 135.559 40.4716 135.559 45.9302Z" fill="#FFBC66"/>
                <path d="M90.3727 45.9302C90.3727 51.3889 85.3151 55.814 79.0761 55.814C72.8371 55.814 67.7795 51.3889 67.7795 45.9302C67.7795 40.4716 72.8371 36.0465 79.0761 36.0465C85.3151 36.0465 90.3727 40.4716 90.3727 45.9302Z" fill="#FFBC66"/>
                <path d="M45.1863 45.9302C45.1863 51.3889 40.1287 55.814 33.8898 55.814C27.6509 55.814 22.5932 51.3889 22.5932 45.9302C22.5932 40.4716 27.6509 36.0465 33.8898 36.0465C40.1287 36.0465 45.1863 40.4716 45.1863 45.9302Z" fill="#FFBC66"/>
                <path d="M158.152 34.3023H135.559V45.9302H158.152V34.3023Z" fill="#FF9000"/>
                <path d="M67.7795 34.3023H45.1863V45.9302H67.7795V34.3023Z" fill="#FF9000"/>
                <path d="M22.5932 34.3023H0V45.9302H22.5932V34.3023Z" fill="#FF9000"/>
                <path d="M112.966 34.3023H90.3727V45.9302H112.966V34.3023Z" fill="#FF9000"/>
                <path d="M45.1863 34.3023H22.5932V45.9302H45.1863V34.3023Z" fill="#FFBC66"/>
                <path d="M90.3727 34.3023H67.7795V45.9302H90.3727V34.3023Z" fill="#FFBC66"/>
                <path d="M135.559 34.3023H112.966V45.9302H135.559V34.3023Z" fill="#FFBC66"/>
                <path d="M33.8898 9.88373H47.1799L22.5932 34.3023H0L33.8898 9.88373Z" fill="#FF9000"/>
                <path d="M47.1799 9.88373H59.8055L45.1863 34.3023H22.5932L47.1799 9.88373Z" fill="#FFBC66"/>
                <path d="M59.8054 9.88373H72.431L67.7795 34.3023H45.1863L59.8054 9.88373Z" fill="#FF9000"/>
                <path d="M72.431 9.88373H87.7147L90.3727 34.3023H67.7795L72.431 9.88373Z" fill="#FFBC66"/>
                <path d="M87.7147 9.88373H100.34L112.966 34.3023H90.3727L87.7147 9.88373Z" fill="#FF9000"/>
                <path d="M100.34 9.88373H112.966L135.559 34.3023H112.966L100.34 9.88373Z" fill="#FFBC66"/>
                <path d="M112.966 9.88373H125.591L158.152 34.3023H135.559L112.966 9.88373Z" fill="#FF9000"/>
                <rect x="90" y="99" width="24" height="11" rx="2" fill="#FF0000"/>
                <line x1="102.432" y1="86.7488" x2="111.124" y2="101.705" stroke="black"/>
                <line x1="103.429" y1="85.2566" x2="93.4291" y2="101.979" stroke="black"/>
                <path d="M105 86.5C105 87.8807 103.881 89 102.5 89C101.119 89 100 87.8807 100 86.5C100 85.1193 101.119 84 102.5 84C103.881 84 105 85.1193 105 86.5Z" fill="#C4C4C4"/>
                <circle cx="93.5" cy="101.5" r="1.5" fill="#C4C4C4"/>
                <circle cx="110.5" cy="101.5" r="1.5" fill="#C4C4C4"/>
                <path d="M96.8574 103.301C96.9212 103.279 96.9922 103.268 97.0703 103.268C97.1497 103.268 97.2292 103.273 97.3086 103.285C97.3893 103.297 97.474 103.316 97.5625 103.342C97.651 103.368 97.7396 103.401 97.8281 103.441C97.9167 103.482 97.9961 103.53 98.0664 103.586C98.224 103.711 98.3027 103.859 98.3027 104.031C98.3027 104.234 98.1953 104.457 97.9805 104.699C97.6732 105.046 97.2331 105.354 96.6602 105.625C96.2995 105.794 95.9375 105.914 95.5742 105.984C95.3945 106.018 95.2194 106.035 95.0488 106.035C94.8796 106.035 94.7331 106.012 94.6094 105.967C94.487 105.92 94.3867 105.862 94.3086 105.793C94.2318 105.724 94.1758 105.65 94.1406 105.57C94.1055 105.491 94.0879 105.407 94.0879 105.318C94.0879 105.23 94.1139 105.126 94.166 105.008C94.2194 104.889 94.2878 104.772 94.3711 104.656C94.4557 104.539 94.5501 104.426 94.6543 104.316C94.7598 104.206 94.8646 104.104 94.9688 104.01C95.1484 103.85 95.321 103.712 95.4863 103.598C95.653 103.482 95.7936 103.391 95.9082 103.324C96.0228 103.258 96.1185 103.207 96.1953 103.172C96.3255 103.111 96.4049 103.08 96.4336 103.08C96.4622 103.08 96.4941 103.089 96.5293 103.105C96.5658 103.122 96.6055 103.143 96.6484 103.166C96.7552 103.226 96.8249 103.271 96.8574 103.301ZM95.0391 105.461C95.0625 105.462 95.1061 105.463 95.1699 105.463C95.2337 105.463 95.3262 105.447 95.4473 105.414C95.5684 105.382 95.6921 105.338 95.8184 105.283C95.9447 105.227 96.071 105.163 96.1973 105.09C96.3249 105.016 96.4466 104.938 96.5625 104.857C96.6784 104.777 96.7865 104.695 96.8867 104.611C96.9883 104.527 97.0762 104.445 97.1504 104.367C97.3092 104.202 97.3887 104.076 97.3887 103.99C97.3887 103.902 97.3353 103.836 97.2285 103.793C97.1569 103.763 97.0801 103.748 96.998 103.748C96.8613 103.748 96.7487 103.76 96.6602 103.783C96.2799 103.962 95.9095 104.195 95.5488 104.482C95.291 104.688 95.1068 104.883 94.9961 105.066C94.9388 105.161 94.9102 105.25 94.9102 105.332C94.9102 105.413 94.9531 105.456 95.0391 105.461ZM98.6992 105.879C98.6771 105.841 98.6686 105.805 98.6738 105.77C98.6803 105.733 98.6979 105.686 98.7266 105.629C98.7552 105.57 98.7943 105.497 98.8438 105.41L99.0156 105.117L99.2266 104.77L99.4648 104.395L99.7148 104.02C99.401 104.098 99.1615 104.191 98.9961 104.299C98.9688 104.317 98.9453 104.336 98.9258 104.355L98.8594 104.422C98.819 104.462 98.7793 104.482 98.7402 104.482C98.7012 104.482 98.6706 104.478 98.6484 104.469C98.6276 104.458 98.6107 104.445 98.5977 104.43C98.5651 104.392 98.5592 104.35 98.5801 104.305C98.6361 104.125 98.7161 103.941 98.8203 103.754C98.8776 103.65 98.9232 103.59 98.957 103.574C99.2044 103.467 99.7201 103.39 100.504 103.342C100.759 103.326 101.027 103.318 101.309 103.318C101.492 103.318 101.667 103.384 101.832 103.516C102.017 103.665 102.109 103.853 102.109 104.078C102.109 104.372 101.857 104.651 101.352 104.914C101.072 105.061 100.809 105.164 100.562 105.223C100.499 105.237 100.449 105.244 100.414 105.244C100.38 105.244 100.341 105.24 100.297 105.23C100.254 105.221 100.215 105.208 100.18 105.191C100.096 105.15 100.055 105.1 100.055 105.041C100.055 104.958 100.135 104.873 100.295 104.787L100.715 104.561C100.964 104.428 101.117 104.331 101.176 104.271C101.234 104.212 101.264 104.163 101.264 104.125C101.264 104.086 101.256 104.05 101.24 104.018C101.226 103.985 101.206 103.956 101.18 103.93C101.124 103.874 101.064 103.846 101 103.846C100.867 103.846 100.707 103.856 100.52 103.877L100.281 104.297C99.9766 104.85 99.7695 105.348 99.6602 105.789C99.6159 105.961 99.4486 106.047 99.1582 106.047C98.9186 106.047 98.7656 105.991 98.6992 105.879ZM102.41 105.947C102.31 105.903 102.231 105.848 102.174 105.781C102.118 105.715 102.081 105.652 102.062 105.594C102.034 105.507 102.02 105.432 102.02 105.369C102.02 105.307 102.04 105.235 102.08 105.154C102.122 105.074 102.19 104.993 102.285 104.914C102.493 104.741 102.813 104.592 103.244 104.469C103.106 104.41 103.027 104.317 103.008 104.189C102.988 104.044 103.051 103.914 103.195 103.801C103.462 103.591 103.975 103.449 104.734 103.375C104.969 103.353 105.139 103.342 105.244 103.342C105.351 103.342 105.426 103.359 105.471 103.393C105.516 103.426 105.543 103.477 105.551 103.545C105.56 103.611 105.548 103.667 105.514 103.713C105.48 103.758 105.432 103.795 105.369 103.822C105.253 103.873 105.095 103.898 104.895 103.898C104.747 103.898 104.613 103.876 104.492 103.832C104.46 103.819 104.434 103.805 104.416 103.791C104.156 103.872 104.008 103.962 103.973 104.062C103.962 104.089 103.958 104.113 103.961 104.135C103.973 104.214 104.025 104.273 104.117 104.311C104.21 104.348 104.35 104.372 104.539 104.383C104.602 104.388 104.648 104.405 104.678 104.434C104.709 104.462 104.727 104.492 104.73 104.523C104.736 104.555 104.734 104.579 104.725 104.598C104.715 104.615 104.702 104.629 104.684 104.641C104.652 104.661 104.59 104.679 104.498 104.693C104.406 104.708 104.298 104.728 104.176 104.754C104.053 104.779 103.937 104.805 103.826 104.834C103.715 104.863 103.613 104.892 103.518 104.922C103.424 104.952 103.342 104.98 103.273 105.008C103.128 105.069 103.057 105.118 103.062 105.156C103.068 105.193 103.083 105.225 103.107 105.252C103.132 105.279 103.165 105.303 103.207 105.324C103.285 105.361 103.38 105.384 103.492 105.395C103.605 105.404 103.715 105.408 103.82 105.408C103.927 105.408 104.041 105.4 104.162 105.383C104.285 105.365 104.398 105.342 104.504 105.314C104.611 105.287 104.708 105.258 104.797 105.229C104.887 105.197 104.965 105.168 105.031 105.141L105.191 105.074C105.233 105.056 105.271 105.047 105.305 105.047C105.395 105.047 105.445 105.094 105.457 105.189C105.473 105.318 105.328 105.464 105.023 105.625C104.616 105.842 104.165 105.984 103.672 106.051C103.557 106.066 103.419 106.074 103.258 106.074C103.098 106.074 102.941 106.064 102.789 106.043C102.637 106.022 102.51 105.99 102.41 105.947ZM106.041 105.918C105.96 106.021 105.894 106.077 105.842 106.088C105.791 106.1 105.749 106.101 105.715 106.092C105.681 106.083 105.651 106.068 105.625 106.047C105.57 106 105.543 105.938 105.543 105.859C105.543 105.802 105.561 105.745 105.596 105.688C106.355 104.48 106.768 103.827 106.834 103.727C106.99 103.495 107.081 103.365 107.105 103.336L107.154 103.277C107.3 103.109 107.49 103.025 107.723 103.025C107.904 103.025 108.027 103.065 108.094 103.145C108.109 103.161 108.117 103.194 108.117 103.242C108.118 103.29 108.121 103.367 108.125 103.473L108.135 103.809C108.139 103.927 108.143 104.048 108.148 104.172L108.16 104.535C108.171 104.77 108.18 104.971 108.188 105.141C108.238 105.051 108.29 104.946 108.342 104.826L108.508 104.447C108.659 104.109 108.805 103.841 108.945 103.645C109.034 103.518 109.18 103.455 109.383 103.455C109.533 103.455 109.667 103.488 109.785 103.553C109.857 103.592 109.892 103.626 109.891 103.656C109.891 103.684 109.881 103.71 109.861 103.734L109.82 103.791C109.728 103.92 109.637 104.054 109.547 104.193L109.285 104.609C108.918 105.216 108.705 105.564 108.646 105.654C108.588 105.744 108.543 105.807 108.512 105.844C108.482 105.879 108.442 105.909 108.393 105.934C108.344 105.958 108.289 105.98 108.227 106C108.091 106.043 107.979 106.064 107.889 106.064C107.738 106.064 107.635 106.043 107.582 106C107.525 105.948 107.444 105.646 107.34 105.094L107.273 104.727C107.253 104.602 107.234 104.477 107.217 104.354C107.174 104.42 107.118 104.499 107.051 104.59L106.477 105.355L106.041 105.918Z" fill="white"/>
                </g>
                <path d="M33.8897 9.88372C33.8897 4.42509 38.3148 0 43.7735 0H115.708C121.166 0 125.591 4.42509 125.591 9.88372V9.88372H33.8897V9.88372Z" fill="#FF9000"/>
                <defs>
                <clipPath id="clip0_178_62">
                <rect width="158.152" height="140.116" fill="white" transform="translate(0 9.88373)"/>
                </clipPath>
                </defs>
            </svg> 